<svg width="86" height="103" viewBox="0 0 86 103" fill="none" xmlns="http://www.w3.org/2000/svg">
<path d="M66.8105 96.7983L70.873 96.354C71.677 96.354 72.2906 96.6714 72.7138 97.3062C73.137 97.8986 73.3485 98.4487 73.3485 98.9565C73.3485 99.422 73.2427 99.8875 73.0312 100.353C72.8619 100.776 72.5445 101.178 72.079 101.559C70.6825 102.786 67.6357 103.188 62.9384 102.765C61.6265 102.681 60.3993 102.596 59.2567 102.511L55.829 102.13C54.7287 102.046 53.5015 102.003 52.1474 102.003C50.7932 102.003 49.5237 102.046 48.3388 102.13L44.6571 102.511C40.9332 102.807 38.246 102.956 36.5956 102.956C34.9452 102.956 33.6968 102.807 32.8505 102.511C32.0465 102.257 31.3694 101.94 30.8192 101.559C29.7613 100.84 29.2323 100.099 29.2323 99.3374C29.2323 98.5757 29.4439 97.8563 29.8671 97.1792C30.2903 96.5021 30.8827 96.1636 31.6444 96.1636L37.6747 96.7983C40.51 96.7983 42.4355 95.5076 43.4511 92.9263C44.3398 90.6411 44.7841 86.7056 44.7841 81.1196V72.4233H6.63467C4.34952 72.4233 2.80492 72.1271 2.00089 71.5347C1.23917 70.9422 0.858307 70.3075 0.858307 69.6304C0.858307 68.3185 1.95857 66.3719 4.15909 63.7905L51.3222 6.21729V6.28076C52.5494 4.84196 53.692 3.57243 54.7499 2.47217C55.8079 1.32959 56.7177 0.758301 57.4794 0.758301C58.9605 0.758301 59.7011 2.17594 59.7011 5.01123V63.4731H68.4608C72.8196 63.4731 76.3954 62.7749 79.1884 61.3784C80.0347 60.9129 80.8176 60.4474 81.537 59.9819C82.7219 59.2625 83.5894 58.9028 84.1396 58.9028C85.2398 58.9028 85.7899 59.4106 85.7899 60.4263C85.7899 61.0187 85.3668 61.9285 84.5204 63.1558C83.7164 64.383 82.997 65.8218 82.3622 67.4722C81.7698 69.0802 81.2196 70.6037 80.7118 72.0425C79.5692 75.3856 78.744 77.0571 78.2362 77.0571C77.9823 77.0571 77.7284 76.9513 77.4745 76.7397C77.2206 76.4858 76.8609 76.1896 76.3954 75.8511C75.9299 75.5125 75.2952 75.1528 74.4911 74.772C73.7294 74.3488 72.7138 73.9679 71.4442 73.6294C68.3551 72.8254 64.4407 72.4233 59.7011 72.4233V81.1196C59.7011 86.7479 60.0608 90.4507 60.7802 92.228C61.4996 94.0054 62.3036 95.2114 63.1923 95.8462C64.1233 96.481 65.3293 96.7983 66.8105 96.7983ZM16.4101 59.7915C15.2675 61.2303 14.6962 62.3094 14.6962 63.0288C14.6962 63.325 15.5426 63.4731 17.2353 63.4731H44.7841V25.0698L16.4101 59.7915Z" fill="#FFF500"/>
</svg>
