<svg width="70" height="109" viewBox="0 0 70 109" fill="none" xmlns="http://www.w3.org/2000/svg">
<path d="M12.8437 44.3237C18.4296 41.6154 24.6503 40.2612 31.5058 40.2612C38.3612 40.2612 44.053 41.1499 48.581 42.9272C53.109 44.7046 56.9387 47.1379 60.0702 50.2271C66.4179 56.5324 69.5917 64.6151 69.5917 74.4751C69.5917 85.0968 65.3599 93.6027 56.8964 99.9927C49.3215 105.748 40.4771 108.625 30.3632 108.625C22.746 108.625 15.2346 107.017 7.82901 103.801C5.28995 102.701 2.94131 101.41 0.783112 99.9292V80.6958C0.783112 78.6646 1.39672 77.6489 2.62393 77.6489C3.17406 77.6489 3.63956 77.9451 4.02042 78.5376C4.44359 79.13 5.07836 80.4842 5.92471 82.6001C6.77107 84.6737 8.08292 86.853 9.86026 89.1382C11.6799 91.4233 13.7958 93.3488 16.2079 94.9146C21.1168 98.173 26.9778 99.8022 33.7909 99.8022C44.5396 99.8022 51.2258 95.1896 53.8495 85.9644C54.4843 83.7215 54.8017 80.8016 54.8017 77.2046C54.8017 73.5653 54.1669 70.0106 52.8974 66.5405C51.6278 63.0705 49.8717 60.1082 47.6288 57.6538C42.9315 52.491 36.8166 49.9097 29.2841 49.9097C21.2014 49.9097 15.3616 51.5601 11.7646 54.8608L9.86026 56.4478C9.31013 56.9132 8.80232 57.146 8.33682 57.146C6.94034 57.146 6.2421 56.1515 6.2421 54.1626V10.6177C6.53832 8.88265 7.53279 8.01514 9.22549 8.01514H29.0937C37.3879 8.01514 42.9104 7.74007 45.661 7.18994C50.2314 6.21663 53.6168 4.67204 55.8173 2.55615C57.2984 1.2443 58.314 0.588379 58.8642 0.588379C59.9644 0.588379 60.5146 1.15967 60.5146 2.30225C60.5146 2.93701 60.2818 3.9738 59.8163 5.4126L58.1659 10.1099C56.5155 14.9764 55.5634 18.4888 55.3095 20.647H12.8437V44.3237Z" fill="#FFF500"/>
</svg>
