<svg width="76" height="103" viewBox="0 0 76 103" fill="none" xmlns="http://www.w3.org/2000/svg">
<path d="M39.631 102.523C27.6551 102.523 18.1548 98.0378 11.13 89.0664C3.93602 79.8835 0.33902 67.2939 0.33902 51.2979C0.33902 37.2907 4.57079 25.2513 13.0343 15.1797C18.3664 8.83203 24.8198 4.38867 32.3947 1.84961C36.161 0.622396 39.8849 0.00878906 43.5666 0.00878906C47.2482 0.00878906 50.3374 0.305013 52.8341 0.897461C55.3732 1.44759 57.5737 2.20931 59.4357 3.18262C61.34 4.11361 62.9481 5.19271 64.2599 6.41992C65.5718 7.64714 66.6297 8.91667 67.4337 10.2285C68.9572 12.6406 69.7189 15.0527 69.7189 17.4648C69.7189 19.1152 69.4438 20.2155 68.8937 20.7656C68.3859 21.2734 67.8781 21.5273 67.3703 21.5273C66.27 21.5273 65.2755 20.6175 64.3869 18.7979C61.0438 12.4079 54.3364 9.21289 44.2648 9.21289C36.0552 9.21289 29.4748 12.5983 24.5236 19.3691C19.2762 26.5208 16.3986 36.8675 15.8908 50.4092C19.4878 42.665 26.0259 37.6081 35.505 35.2383C38.4673 34.5189 41.895 34.1592 45.7882 34.1592C49.7238 34.1592 53.5535 34.9421 57.2775 36.5078C61.0438 38.0312 64.2599 40.1471 66.9259 42.8555C72.5119 48.6107 75.3048 55.9316 75.3048 64.8184C75.3048 76.5827 71.3693 86.0195 63.4982 93.1289C56.5158 99.3919 48.56 102.523 39.631 102.523ZM17.0334 67.1035C18.7684 75.6517 22.0903 82.2109 26.9992 86.7812C31.6964 91.14 37.1977 93.3193 43.5031 93.3193C48.5812 93.3193 52.686 91.5208 55.8175 87.9238C58.949 84.2845 60.5148 79.7354 60.5148 74.2764C60.5148 68.7751 59.8589 64.1624 58.547 60.4385C57.2352 56.7145 55.5213 53.6042 53.4054 51.1074C49.3006 46.2409 44.4341 43.8076 38.8058 43.8076C33.7277 43.8076 29.2209 45.7754 25.2853 49.7109C21.0959 53.9004 18.3452 59.6979 17.0334 67.1035Z" fill="#FFF500"/>
</svg>
