<svg width="45" height="45" viewBox="0 0 45 45" fill="none" xmlns="http://www.w3.org/2000/svg">
<g clip-path="url(#clip0)">
<path d="M15.8574 20.6516V19.2485C15.8574 18.8845 15.5623 18.5894 15.1982 18.5894C14.8342 18.5894 14.5391 18.8845 14.5391 19.2485V20.6516C14.5391 21.0157 14.8342 21.3108 15.1982 21.3108C15.5623 21.3108 15.8574 21.0157 15.8574 20.6516Z" fill="black"/>
<path d="M29.8019 21.3108C30.1659 21.3108 30.4611 21.0157 30.4611 20.6516V19.2485C30.4611 18.8845 30.1659 18.5894 29.8019 18.5894C29.4378 18.5894 29.1427 18.8845 29.1427 19.2485V20.6516C29.1427 21.0157 29.4378 21.3108 29.8019 21.3108Z" fill="black"/>
<path d="M22.5 22.1462C23.4283 22.1462 24.3111 21.7441 24.9221 21.0431C25.1612 20.7686 25.1327 20.3523 24.8582 20.113C24.5837 19.8738 24.1674 19.9023 23.9281 20.1768C23.5676 20.5905 23.0471 20.8278 22.5 20.8278C21.9529 20.8278 21.4324 20.5905 21.0719 20.1768C20.8327 19.9023 20.4163 19.8738 20.1418 20.1129C19.8673 20.3521 19.8388 20.7685 20.0779 21.043C20.6889 21.7441 21.5717 22.1462 22.5 22.1462Z" fill="black"/>
<path d="M40.1553 10.7986L40.0253 10.0479C39.5731 7.43704 37.4147 5.44192 34.7764 5.19609L33.5963 5.08614C33.0666 3.71795 32.0341 2.58258 30.7105 1.93025C29.3816 1.27529 27.8454 1.14961 26.4331 1.56894C25.3514 0.567158 23.9167 0 22.4344 0C20.9529 0 19.5192 0.566455 18.4359 1.56902C17.0235 1.1497 15.4872 1.27529 14.1583 1.93025C12.835 2.5824 11.8028 3.71725 11.2726 5.08623L10.2041 5.18572C7.49163 5.4385 5.32302 7.49777 4.93032 10.1936L4.84102 10.8069C3.91026 12.8628 3.35356 15.0476 3.18393 17.306C2.41682 18.1904 1.95092 19.3428 1.95092 20.6027C1.95092 23.553 4.49403 25.8987 7.46482 25.618C7.84425 26.573 8.31596 27.4948 8.8774 28.3709C9.07384 28.6774 9.48156 28.7667 9.78804 28.5703C10.0945 28.3738 10.1837 27.9661 9.98737 27.6596C8.30699 25.0376 7.49769 21.972 7.67233 18.8452C8.03963 12.2643 15.9759 9.0602 20.7198 13.6887C21.718 14.6627 23.2819 14.6626 24.28 13.6888C27.8208 10.2384 33.3619 11.0544 36.0038 14.9106C39.0063 19.3315 36.7976 26.4185 32.9643 30.2251C26.9231 36.2243 17.2136 35.8966 11.5393 29.6796C11.294 29.4107 10.877 29.3917 10.6081 29.6372C10.3392 29.8825 10.3201 30.2995 10.5656 30.5684C11.3917 31.4735 12.3123 32.2741 13.3038 32.9621C11.0102 33.4457 9.98851 36.288 11.593 38.154C10.7571 39.4344 9.90168 41.4508 9.90168 44.3409C9.90168 44.705 10.1968 45.0001 10.5609 45.0001H34.2178C34.5818 45.0001 34.8769 44.705 34.8769 44.3409C34.8769 41.4509 34.0215 39.4344 33.1857 38.154C34.7295 36.3584 33.8492 33.619 31.6689 33.0098C34.2347 31.2357 36.3417 28.6893 37.5508 25.6194C40.5293 25.8906 43.0488 23.5348 43.0488 20.6027C43.0488 19.3428 42.5829 18.1904 41.8158 17.306C41.6463 15.0444 41.0883 12.8569 40.1553 10.7986ZM25.1355 37.969C23.5119 39.1916 21.2729 39.1959 19.6435 37.9692V35.6016C21.4112 35.9198 23.2832 35.9449 25.1355 35.6432V37.969ZM13.9531 34.2123H15.4171C16.3499 34.6704 17.3254 35.0373 18.325 35.3063V43.6816H16.3652C16.1663 41.1042 14.8442 39.1281 12.8605 37.5511C11.4347 36.4308 12.2549 34.2123 13.9531 34.2123ZM12.591 39.0409C13.9739 40.2819 14.8673 41.839 15.0403 43.6816H11.2368C11.3451 41.576 11.9614 40.0605 12.591 39.0409ZM19.6434 39.5252C21.32 40.41 23.3721 40.4558 25.1354 39.5251V43.6816H19.6434V39.5252ZM30.8257 34.2123C31.8866 34.2123 32.7092 35.1228 32.6418 36.1806C32.584 37.0882 31.9103 37.5604 31.9176 37.5516C31.4968 37.8843 31.1232 38.2036 30.7213 38.627C30.3877 38.9776 30.2237 39.1362 30.2189 39.426C30.2087 40.0433 30.9805 40.3326 31.3795 39.8651C31.6227 39.58 31.9166 39.2826 32.1877 39.0408C32.8173 40.0604 33.4337 41.5761 33.542 43.6816H29.7378C29.7966 43.0474 29.9432 42.4448 30.1461 41.915C30.2764 41.5751 30.1064 41.1939 29.7665 41.0636C29.4266 40.9333 29.0454 41.1032 28.9151 41.4432C28.6411 42.1577 28.4723 42.9328 28.414 43.6816H26.4538C26.4538 42.7652 26.4538 36.2511 26.4538 35.3722C27.5499 35.098 28.6102 34.7089 29.6211 34.2121H30.8257V34.2123ZM37.8758 15.5658C37.1915 14.0296 36.0514 12.6412 34.5073 11.6508H39.0916C39.7118 13.09 40.1376 14.595 40.3637 16.1442C39.5953 15.7366 38.7148 15.5419 37.8758 15.5658ZM10.3265 6.49846L11.8182 6.35941C12.0856 6.33445 12.3114 6.14865 12.3887 5.89157C12.7573 4.66559 13.5928 3.67875 14.7411 3.11282C15.8894 2.54681 17.1809 2.48537 18.3777 2.93994C18.6282 3.03495 18.915 2.9649 19.0978 2.76899C19.9703 1.83357 21.1552 1.31836 22.4344 1.31836C23.7135 1.31836 24.8985 1.83357 25.7766 2.77506C25.9593 2.96965 26.2414 3.03451 26.491 2.93994C27.6878 2.48546 28.9794 2.54681 30.1277 3.11282C31.276 3.67875 32.1114 4.66559 32.4803 5.89245C32.5574 6.14971 32.783 6.33445 33.0505 6.35941L34.6541 6.50883C36.701 6.69955 38.3755 8.24739 38.7264 10.2729L38.7367 10.3323C29.1876 10.3255 31.8117 10.3637 30.4342 10.2283C27.7241 9.95941 25.2037 10.9456 23.3596 12.745C22.8776 13.2152 22.1225 13.2152 21.6407 12.7451C19.5362 10.692 16.6845 9.80886 13.8223 10.3323H6.2427C6.56711 8.2662 8.23931 6.69287 10.3265 6.49846ZM5.90846 11.6508H10.4864C8.94059 12.6422 7.79661 14.0404 7.11915 15.5657C6.31548 15.5435 5.4269 15.725 4.63633 16.1442C4.86238 14.595 5.28821 13.09 5.90846 11.6508ZM7.0128 24.3229C4.94473 24.3345 3.26936 22.6568 3.26936 20.6026C3.26936 18.6979 4.72668 17.073 6.65139 16.898C6.05884 19.1362 6.33798 22.089 7.0128 24.3229ZM37.998 24.323C38.6566 22.1099 38.9514 19.1728 38.3454 16.8979C39.2317 16.9781 40.0167 17.3639 40.6108 17.9452C42.9979 20.2852 41.3103 24.3404 37.998 24.323Z" fill="black"/>
</g>
<defs>
<clipPath id="clip0">
<rect width="45" height="45" fill="white"/>
</clipPath>
</defs>
</svg>
