<svg width="39" height="46" viewBox="0 0 39 46" fill="none" xmlns="http://www.w3.org/2000/svg">
<path d="M12.1616 20.4643C12.5257 20.4643 12.8208 20.1692 12.8208 19.8051V18.395C12.8208 18.031 12.5257 17.7358 12.1616 17.7358C11.7976 17.7358 11.5024 18.031 11.5024 18.395V19.8051C11.5024 20.1692 11.7976 20.4643 12.1616 20.4643Z" fill="black"/>
<path d="M26.8384 20.4643C27.2024 20.4643 27.4976 20.1692 27.4976 19.8051V18.395C27.4976 18.031 27.2024 17.7358 26.8384 17.7358C26.4743 17.7358 26.1792 18.031 26.1792 18.395V19.8051C26.1792 20.1692 26.4742 20.4643 26.8384 20.4643Z" fill="black"/>
<path d="M19.4998 21.3033C20.4318 21.3033 21.3181 20.8996 21.9315 20.1958C22.1707 19.9213 22.1421 19.505 21.8676 19.2657C21.5931 19.0266 21.1767 19.0552 20.9375 19.3296C20.1776 20.2017 18.8241 20.2043 18.0619 19.3296C17.8228 19.0552 17.4064 19.0266 17.1319 19.2657C16.8574 19.5049 16.8288 19.9213 17.068 20.1958C17.6815 20.8996 18.5678 21.3033 19.4998 21.3033Z" fill="black"/>
<path d="M38.529 20.0255C38.529 14.7139 36.3298 9.72314 32.4853 6.12824C32.2194 5.87969 31.8023 5.89357 31.5536 6.15953C31.3049 6.42549 31.3189 6.84262 31.5848 7.09126C35.1544 10.4289 37.2106 15.0683 37.2106 20.0255C37.2151 32.5705 37.3806 35.3365 30.1597 38.4879C29.3427 36.7217 28.2007 35.1815 26.9732 34.0495C32.5992 31.0418 35.8698 25.0063 35.3251 18.6543C35.1484 16.5943 33.7599 14.8494 31.7877 14.2087C26.9014 12.6216 24.1247 12.6963 20.1591 7.43667V2.32601C23.551 2.45055 26.801 3.53564 29.5969 5.48312C29.8955 5.69116 30.3064 5.61777 30.5145 5.31903C30.7226 5.02029 30.6491 4.6094 30.3504 4.40137C27.1519 2.17325 23.3999 0.995605 19.5 0.995605C9.00744 0.995605 0.471062 9.53233 0.471062 20.0255L0.470885 20.8889C0.466755 32.8466 0.467106 36.2675 8.34395 39.7085C7.78769 41.2518 7.38893 43.1274 7.38893 45.3364C7.38893 45.7005 7.68407 45.9956 8.04811 45.9956H30.9521C31.3162 45.9956 31.6113 45.7005 31.6113 45.3364C31.6113 43.1274 31.2126 41.2518 30.6563 39.7085C38.7315 36.1808 38.5321 32.6561 38.529 20.0255ZM27.2723 44.6772H11.7278C11.2567 41.1914 15.1642 39.0428 17.8502 41.0389C18.8369 41.7729 20.163 41.7729 21.1498 41.039C23.8841 39.007 27.7489 41.2542 27.2723 44.6772ZM21.5696 35.7754V39.3128C21.1439 39.479 20.7389 39.7019 20.3631 39.9812C19.8373 40.3722 19.1415 40.3562 18.6367 39.9811C18.281 39.7165 17.8674 39.4835 17.4304 39.3131V35.7745C18.7656 35.9491 20.1555 35.9575 21.5696 35.7754ZM13.8949 34.8846C14.6329 35.1647 15.345 35.3713 16.1122 35.5434V38.9914C15.3915 38.9144 14.6184 38.9877 13.8949 39.2262V34.8846ZM22.8879 38.9913V35.5481C23.6445 35.3847 24.385 35.1663 25.1052 34.8953V39.2261C24.3847 38.9887 23.6129 38.9143 22.8879 38.9913ZM8.84018 38.4879C1.7838 35.4083 1.78511 32.701 1.78916 20.8895L1.78933 20.0255C1.78933 10.4799 9.37904 2.67379 18.8408 2.32609V7.43658C15.0076 12.5588 12.2076 12.5861 7.2121 14.2086C5.24018 14.8493 3.85186 16.5935 3.67494 18.6524C3.35124 22.4247 4.35794 26.1992 6.6626 29.3564C6.90896 29.6941 7.40247 29.7194 7.6831 29.411C7.88956 29.1842 7.9154 28.8363 7.72758 28.579C5.61082 25.6792 4.69166 22.2169 4.98855 18.7652C5.11889 17.2468 6.14405 15.9418 7.61947 15.4626C12.5666 13.8554 15.5556 13.7485 19.5 8.7422C23.5576 13.8936 26.7987 13.9739 31.3805 15.4626C32.8413 15.9371 33.8797 17.2294 34.0116 18.7669C34.5427 24.9557 31.0884 30.7749 25.4921 33.3044H25.492C20.0744 35.7523 13.7083 34.662 9.38774 30.4845C9.12556 30.231 8.70782 30.2388 8.45522 30.5007C8.20218 30.7624 8.20922 31.1797 8.47095 31.4327C9.51606 32.4435 10.7253 33.3341 12.0389 34.0383C10.7804 35.1956 9.64438 36.7495 8.84018 38.4879ZM8.7196 44.6772C8.86857 40.7644 10.3951 37.5642 12.5764 35.3574V39.8826C11.1511 40.8717 10.3718 42.4751 10.3718 44.1411C10.3747 44.3259 10.3794 44.4856 10.3994 44.6772H8.7196ZM28.6006 44.6772C28.7934 42.7984 27.9816 40.9637 26.4236 39.8825V35.3571C28.6672 37.6268 30.1348 40.8537 30.2804 44.6772H28.6006Z" fill="black"/>
</svg>
