<svg width="150" height="125" viewBox="0 0 150 125" fill="none" xmlns="http://www.w3.org/2000/svg">
<path d="M126.639 112.981C126.639 119.619 121.135 125 114.344 125H35.6557C28.8653 125 23.3607 119.619 23.3607 112.981V50.4808C23.3607 22.601 46.4803 -2.43733e-06 75 0C103.52 2.43732e-06 126.639 22.6011 126.639 50.4808V112.981Z" fill="url(#paint0_linear)"/>
<path d="M49.1803 69.1104C63.1006 69.1104 74.3852 58.0789 74.3852 44.471C74.3852 30.863 63.1006 19.8315 49.1803 19.8315C35.2601 19.8315 23.9754 30.863 23.9754 44.471C23.9754 58.0789 35.2601 69.1104 49.1803 69.1104Z" fill="white" stroke="#4F4F4F" stroke-width="7"/>
<path d="M49.1803 51.6828C53.2546 51.6828 56.5574 48.4541 56.5574 44.4713C56.5574 40.4885 53.2546 37.2598 49.1803 37.2598C45.1061 37.2598 41.8033 40.4885 41.8033 44.4713C41.8033 48.4541 45.1061 51.6828 49.1803 51.6828Z" fill="#4F4F4F"/>
<path d="M102.049 69.1104C115.969 69.1104 127.254 58.0789 127.254 44.471C127.254 30.863 115.969 19.8315 102.049 19.8315C88.1289 19.8315 76.8443 30.863 76.8443 44.471C76.8443 58.0789 88.1289 69.1104 102.049 69.1104Z" fill="white" stroke="#4F4F4F" stroke-width="7"/>
<path d="M102.049 51.6828C106.123 51.6828 109.426 48.4541 109.426 44.4713C109.426 40.4885 106.123 37.2598 102.049 37.2598C97.975 37.2598 94.6721 40.4885 94.6721 44.4713C94.6721 48.4541 97.975 51.6828 102.049 51.6828Z" fill="#4F4F4F"/>
<path d="M144.987 28.5136C145.901 28.7532 146.207 29.8702 145.538 30.5246L128.016 47.6538C127.346 48.308 126.204 48.0087 125.959 47.1149L119.545 23.7159C119.3 22.8223 120.137 22.0044 121.051 22.2439L144.987 28.5136Z" fill="#4F4F4F"/>
<path d="M4.94601 30.5246C4.27676 29.8702 4.58296 28.7532 5.49719 28.5136L29.4332 22.2439C30.3475 22.0044 31.184 22.8223 30.9391 23.7159L24.5254 47.1149C24.2805 48.0087 23.1376 48.308 22.4684 47.6538L4.94601 30.5246Z" fill="#4F4F4F"/>
<path d="M77.1296 70.9133C76.1832 72.5158 73.8168 72.5158 72.8704 70.9133L66.4817 60.096C65.5352 58.4935 66.7183 56.4902 68.6112 56.4902H81.3888C83.2817 56.4902 84.4648 58.4935 83.5183 60.096L77.1296 70.9133Z" fill="#4F4F4F"/>
<defs>
<linearGradient id="paint0_linear" x1="75" y1="0" x2="75" y2="125" gradientUnits="userSpaceOnUse">
<stop stop-color="#FFF859"/>
<stop offset="0.690625" stop-color="#FFF500" stop-opacity="0.79"/>
<stop offset="1" stop-color="#FFD600"/>
</linearGradient>
</defs>
</svg>
