<svg width="122" height="104" viewBox="0 0 122 104" fill="none" xmlns="http://www.w3.org/2000/svg">
<path d="M103 94C103 99.5228 98.5228 104 93 104H29C23.4771 104 19 99.5228 19 94V42C19 18.804 37.804 -2.02786e-06 61 0C84.196 2.02785e-06 103 18.8041 103 42V94Z" fill="url(#paint0_linear)"/>
<path d="M40 57.5C51.3218 57.5 60.5 48.3218 60.5 37C60.5 25.6782 51.3218 16.5 40 16.5C28.6782 16.5 19.5 25.6782 19.5 37C19.5 48.3218 28.6782 57.5 40 57.5Z" fill="white" stroke="#4F4F4F" stroke-width="7"/>
<path d="M40 43C43.3137 43 46 40.3137 46 37C46 33.6863 43.3137 31 40 31C36.6863 31 34 33.6863 34 37C34 40.3137 36.6863 43 40 43Z" fill="#4F4F4F"/>
<path d="M83 57.5C94.3218 57.5 103.5 48.3218 103.5 37C103.5 25.6782 94.3218 16.5 83 16.5C71.6782 16.5 62.5 25.6782 62.5 37C62.5 48.3218 71.6782 57.5 83 57.5Z" fill="white" stroke="#4F4F4F" stroke-width="7"/>
<path d="M83 43C86.3137 43 89 40.3137 89 37C89 33.6863 86.3137 31 83 31C79.6863 31 77 33.6863 77 37C77 40.3137 79.6863 43 83 43Z" fill="#4F4F4F"/>
<path d="M117.923 23.7234C118.666 23.9227 118.915 24.8521 118.371 25.3965L104.12 39.648C103.575 40.1923 102.646 39.9433 102.447 39.1997L97.2301 19.7317C97.0309 18.9882 97.7113 18.3077 98.4548 18.507L117.923 23.7234Z" fill="#4F4F4F"/>
<path d="M4.02276 25.3965C3.47843 24.8521 3.72747 23.9227 4.47105 23.7234L23.939 18.507C24.6826 18.3077 25.363 18.9882 25.1638 19.7317L19.9473 39.1997C19.7481 39.9433 18.8186 40.1923 18.2743 39.648L4.02276 25.3965Z" fill="#4F4F4F"/>
<path d="M62.7321 59C61.9623 60.3333 60.0377 60.3333 59.2679 59L54.0718 50C53.302 48.6667 54.2642 47 55.8038 47H66.1962C67.7358 47 68.698 48.6667 67.9282 50L62.7321 59Z" fill="#4F4F4F"/>
<defs>
<linearGradient id="paint0_linear" x1="61" y1="0" x2="61" y2="104" gradientUnits="userSpaceOnUse">
<stop stop-color="#FFF859"/>
<stop offset="0.690625" stop-color="#FFF500" stop-opacity="0.79"/>
<stop offset="1" stop-color="#FFD600"/>
</linearGradient>
</defs>
</svg>
