<svg width="43" height="39" viewBox="0 0 43 39" fill="none" xmlns="http://www.w3.org/2000/svg">
<path d="M11.1623 22.2834C12.8623 22.7834 14.1623 23.7334 15.0623 25.1334C16.0623 26.4334 16.5623 28.0334 16.5623 29.9334C16.5623 32.3334 15.8123 34.2834 14.3123 35.7834C12.8123 37.2834 10.9623 38.0334 8.76231 38.0334C6.36231 38.0334 4.4123 37.2834 2.9123 35.7834C1.51231 34.1834 0.812305 32.2334 0.812305 29.9334C0.812305 28.7334 0.912305 27.5834 1.11231 26.4834C1.41231 25.2834 1.9623 23.5834 2.7623 21.3834L9.06231 0.683392H16.2623L11.1623 22.2834ZM36.6623 22.2834C38.3623 22.7834 39.6623 23.7334 40.5623 25.1334C41.5623 26.4334 42.0623 28.0334 42.0623 29.9334C42.0623 32.3334 41.3123 34.2834 39.8123 35.7834C38.3123 37.2834 36.4623 38.0334 34.2623 38.0334C31.8623 38.0334 29.9123 37.2834 28.4123 35.7834C27.0123 34.1834 26.3123 32.2334 26.3123 29.9334C26.3123 28.7334 26.4123 27.5834 26.6123 26.4834C26.9123 25.2834 27.4623 23.5834 28.2623 21.3834L34.5623 0.683392H41.7623L36.6623 22.2834Z" fill="black"/>
</svg>
